# xmcd
#
# Track frame offsets:
#	150
#	15253
#	31611
#	46247
#	65322
#	80517
#	94770
#	112170
#	129985
#	145447
#	161501
#	174194
#	190162
#	204239
#	221644
#	246622
#	262689
#	291975
#
# Disc length: 3950 seconds
# Revision: 1
# Processed by: cddbd v1.5.2PL0 Copyright (c) Steve Scherf et al.
# Submitted via: dBpowerAMP V12.0
#
DISCID=f40f6c12
DTITLE=Various Artist - Country Radio July 2004
DYEAR=2004
DGENRE=Country
TTITLE0=Big and Rich - Save A Horse Ride A Cowboy
TTITLE1=Jedd Hughes - High Lonesome
TTITLE2=Lisa Brokop - Wildflower
TTITLE3=Tim McGraw - Live Like You Where Dying
TTITLE4=Carolyn Dawn Johnson - Die Of A Broken Heart
TTITLE5=Keith Bryant - Ridin With The Legend
TTITLE6=Adam Gregory - Never Be Another
TTITLE7=Kenny Chesney - I Go Back
TTITLE8=Doc Walker - North Dakota Boy
TTITLE9=Gary Allan - Nothing On But The Radio
TTITLE10=Jake MaThews - Time After Time
TTITLE11=Hal Katchum - My Love Will Not Change
TTITLE12=Alan Jackson - Too Much Of A Good Thing
TTITLE13=Danni - My King Of Guy
TTITLE14=Lyle Lovett - In My Own Mind
TTITLE15=Kaly Kiefer - Little Man
TTITLE16=King Wilkie - Goodbye So Long
TTITLE17=DATA
EXTD=
EXTT0=
EXTT1=
EXTT2=
EXTT3=
EXTT4=
EXTT5=
EXTT6=
EXTT7=
EXTT8=
EXTT9=
EXTT10=
EXTT11=
EXTT12=
EXTT13=
EXTT14=
EXTT15=
EXTT16=
EXTT17=
PLAYORDER=
